<svg width="934" height="1033" viewBox="0 0 934 1033" fill="none" xmlns="http://www.w3.org/2000/svg">
<path d="M380.389 0L515.059 442.8L661.611 0H791L586.355 546H437.161L251 0H380.389Z" fill="#03439B"/>
<path d="M326.389 0L461.059 442.8L607.611 0H737L532.355 546H383.161L197 0H326.389Z" fill="#3DBCFF"/>
<path d="M910.233 880H462.049V956.5H879.998C894.819 939.87 929.085 903.948 933.353 893.304C937.622 882.661 919.718 880 910.233 880Z" fill="#03439B"/>
<path d="M23.2687 880H462.049V956.5H52.869C38.359 939.87 4.81205 903.948 0.633175 893.304C-3.5457 882.661 13.9823 880 23.2687 880Z" fill="#03439B"/>
<path d="M23.2686 1033H462.049V956.5H52.869C38.3591 973.13 4.81203 1009.05 0.633156 1019.7C-3.54572 1030.34 13.9823 1033 23.2686 1033Z" fill="#03439B"/>
<path d="M910.233 1033H462.049V956.5H879.998C894.819 973.13 929.085 1009.05 933.353 1019.7C937.622 1030.34 919.718 1033 910.233 1033Z" fill="#03439B"/>
<path d="M222.168 606.724L149.707 840H76.7334L1.19629 606.724H76.7334L113.477 733.872C115.983 741.392 118.205 748.797 120.142 756.089L163.208 606.724H222.168Z" fill="#3DBCFF"/>
<path d="M419.385 784.287V840H243.872V606.724H419.385V660.557H314.111V694.395H399.219V746.177H314.111V784.287H419.385Z" fill="#3DBCFF"/>
<path d="M611.475 782.749V840H447.925V606.724H519.531V782.749H611.475Z" fill="#3DBCFF"/>
<path d="M708.203 606.724V840H636.597V606.724H708.203Z" fill="#3DBCFF"/>
<path d="M928.662 784.971V840H734.521V795.396L837.915 660.728H742.383V606.724H925.415V652.012L825.098 784.971H928.662Z" fill="#3DBCFF"/>
<path d="M271.235 979.543C271.235 983.693 271.87 986.843 273.14 988.991C274.458 991.091 276.631 992.141 279.658 992.141C281.562 992.141 283.491 991.53 285.444 990.31C287.397 989.089 289.302 987.355 291.157 985.109C293.013 982.814 294.722 980.08 296.284 976.906C297.896 973.684 299.312 970.119 300.532 966.213C301.753 962.258 302.705 957.985 303.389 953.396C304.072 948.806 304.414 944.021 304.414 939.04C304.414 934.011 303.853 929.25 302.729 924.758C301.655 920.266 299.946 916.359 297.603 913.039C295.308 909.67 292.354 907.009 288.74 905.056C285.176 903.103 280.903 902.126 275.923 902.126C271.772 902.126 268.11 902.59 264.937 903.518C261.763 904.445 259.004 905.739 256.66 907.399C254.365 909.011 252.412 910.915 250.801 913.112C249.238 915.31 247.969 917.678 246.992 920.217C246.064 922.707 245.405 925.319 245.015 928.054C244.624 930.739 244.429 933.4 244.429 936.037C244.429 939.65 244.795 942.873 245.527 945.705C246.309 948.537 247.163 950.954 248.091 952.956C249.067 954.909 249.971 956.423 250.801 957.497C251.68 958.571 252.192 959.182 252.339 959.328C253.169 959.084 253.755 959.182 254.097 959.621C254.438 960.061 254.609 960.646 254.609 961.379C254.609 962.355 254.39 963.381 253.95 964.455C253.56 965.48 253.022 966.433 252.339 967.312C251.655 968.142 250.874 968.85 249.995 969.436C249.165 969.973 248.311 970.241 247.432 970.241C247.041 970.241 246.65 970.192 246.26 970.095C245.918 969.997 245.552 969.802 245.161 969.509C245.063 969.46 244.697 969.118 244.062 968.483C243.428 967.8 242.646 966.848 241.719 965.627C240.791 964.406 239.79 962.893 238.716 961.086C237.69 959.23 236.714 957.106 235.786 954.714C234.907 952.321 234.175 949.636 233.589 946.657C233.003 943.679 232.71 940.432 232.71 936.916C232.71 930.129 233.735 923.903 235.786 918.239C237.886 912.526 240.84 907.644 244.648 903.591C248.457 899.489 253.047 896.315 258.418 894.069C263.789 891.774 269.771 890.627 276.362 890.627C283.345 890.627 289.351 891.97 294.38 894.655C299.458 897.292 303.608 900.808 306.831 905.202C310.103 909.597 312.52 914.626 314.082 920.29C315.645 925.954 316.426 931.813 316.426 937.868C316.426 944.948 315.864 951.491 314.741 957.497C313.667 963.503 312.178 968.947 310.273 973.83C308.418 978.713 306.245 983.034 303.755 986.794C301.265 990.505 298.628 993.63 295.845 996.169C293.062 998.659 290.205 1000.54 287.275 1001.81C284.346 1003.08 281.514 1003.71 278.779 1003.71C275.264 1003.71 272.261 1003.15 269.771 1002.03C267.329 1000.95 265.352 999.367 263.838 997.268C262.324 995.119 261.226 992.507 260.542 989.431C259.858 986.306 259.517 982.766 259.517 978.811V921.315C259.517 919.899 259.419 918.898 259.224 918.312C259.028 917.678 258.931 917.092 258.931 916.555C258.931 915.773 259.321 915.163 260.103 914.724C260.884 914.235 261.812 913.991 262.886 913.991C265.376 913.991 267.378 914.65 268.892 915.969C270.454 917.238 271.235 918.776 271.235 920.583V979.543Z" fill="white"/>
<path d="M360.444 954.348C360.444 957.131 359.956 959.987 358.979 962.917C358.052 965.847 356.636 968.63 354.731 971.267C352.876 973.854 350.557 976.198 347.773 978.298C345.039 980.349 341.865 981.911 338.252 982.985C338.74 984.255 339.375 985.476 340.156 986.647C340.986 987.771 341.963 988.747 343.086 989.577C344.209 990.407 345.503 991.066 346.968 991.555C348.481 992.043 350.215 992.287 352.168 992.287C355.098 992.287 357.612 991.75 359.712 990.676C361.812 989.553 363.569 988.088 364.985 986.281C366.45 984.475 367.622 982.448 368.501 980.202C369.38 977.956 370.039 975.686 370.479 973.391C370.82 971.73 371.504 970.632 372.529 970.095C373.604 969.509 374.678 969.362 375.752 969.655C376.875 969.948 377.827 970.583 378.608 971.56C379.438 972.487 379.78 973.61 379.634 974.929C379.438 976.442 379.097 978.176 378.608 980.129C378.169 982.082 377.485 984.06 376.558 986.062C375.63 988.063 374.434 990.041 372.969 991.994C371.553 993.898 369.795 995.607 367.695 997.121C365.596 998.635 363.13 999.855 360.298 1000.78C357.466 1001.71 354.219 1002.17 350.557 1002.17C347.139 1002.17 343.818 1001.49 340.596 1000.12C337.422 998.806 334.59 996.901 332.1 994.411C329.658 991.872 327.681 988.771 326.167 985.109C324.702 981.398 323.97 977.199 323.97 972.512C323.97 967.775 324.629 963.381 325.947 959.328C327.266 955.227 328.999 951.687 331.147 948.708C333.296 945.729 335.737 943.41 338.472 941.75C341.206 940.041 344.014 939.187 346.895 939.187C348.994 939.187 350.874 939.553 352.534 940.285C354.243 941.018 355.684 942.067 356.855 943.435C358.027 944.753 358.906 946.34 359.492 948.195C360.127 950.051 360.444 952.102 360.444 954.348ZM336.274 972.072C336.274 972.512 336.299 972.951 336.348 973.391C336.396 973.83 336.421 974.294 336.421 974.782C338.276 973.903 339.961 972.78 341.475 971.413C342.988 970.046 344.282 968.483 345.356 966.726C346.431 964.968 347.261 963.063 347.847 961.013C348.433 958.913 348.726 956.74 348.726 954.494C348.726 952.834 348.433 951.54 347.847 950.612C347.31 949.685 346.553 949.221 345.576 949.221C344.355 949.221 343.257 949.636 342.28 950.466C341.353 951.296 340.522 952.395 339.79 953.762C339.106 955.08 338.521 956.594 338.032 958.303C337.593 959.963 337.227 961.647 336.934 963.356C336.641 965.065 336.445 966.701 336.348 968.264C336.25 969.777 336.226 971.047 336.274 972.072Z" fill="white"/>
<path d="M378.975 977.419C378.584 978.981 377.852 979.958 376.777 980.349C375.703 980.69 374.629 980.642 373.555 980.202C372.529 979.763 371.65 979.006 370.918 977.932C370.234 976.857 370.039 975.686 370.332 974.416C371.064 971.096 372.114 967.434 373.481 963.43C374.897 959.377 376.289 955.349 377.656 951.345C376.924 950.222 376.338 949.099 375.898 947.976C375.459 946.804 375.239 945.583 375.239 944.313C375.239 943.044 375.703 941.726 376.631 940.358C377.607 938.942 378.755 937.648 380.073 936.477C381.44 935.305 382.832 934.353 384.248 933.62C385.713 932.839 386.958 932.448 387.983 932.448C389.79 932.448 391.133 933.059 392.012 934.279C392.939 935.5 393.403 937.136 393.403 939.187C393.403 940.31 393.208 941.433 392.817 942.556C392.476 943.63 392.085 944.655 391.646 945.632C391.206 946.56 390.791 947.365 390.4 948.049C390.059 948.732 389.863 949.172 389.814 949.367C391.572 952.492 393.403 955.251 395.308 957.644C397.212 960.036 398.945 962.404 400.508 964.748C402.119 967.092 403.438 969.582 404.463 972.219C405.488 974.855 406.001 977.956 406.001 981.521C406.001 982.399 405.928 983.303 405.781 984.23C405.684 985.158 405.513 986.037 405.269 986.867C407.026 986.525 408.564 985.988 409.883 985.256C411.25 984.523 412.422 983.693 413.398 982.766C414.424 981.789 415.254 980.739 415.889 979.616C416.572 978.493 417.134 977.321 417.573 976.101C418.11 974.685 418.647 973.659 419.185 973.024C419.722 972.39 420.332 972.072 421.016 972.072C421.65 972.072 422.285 972.292 422.92 972.731C423.604 973.122 424.189 973.635 424.678 974.27C425.215 974.904 425.63 975.563 425.923 976.247C426.265 976.931 426.436 977.541 426.436 978.078C426.436 978.811 426.24 979.689 425.85 980.715C425.459 981.74 424.922 982.79 424.238 983.864C423.604 984.938 422.871 985.988 422.041 987.014C421.211 987.99 420.356 988.845 419.478 989.577C417.134 991.481 414.375 993.093 411.201 994.411C408.027 995.681 404.097 996.486 399.409 996.828C397.603 998.391 395.454 999.66 392.964 1000.64C390.522 1001.66 387.764 1002.17 384.688 1002.17C383.125 1002.17 381.514 1001.98 379.854 1001.59C378.242 1001.2 376.68 1000.69 375.166 1000.05C373.701 999.465 372.358 998.806 371.138 998.073C369.917 997.341 368.94 996.608 368.208 995.876C366.353 994.118 365.156 992.36 364.619 990.603C364.082 988.796 363.96 987.185 364.253 985.769C364.497 984.353 365.01 983.205 365.791 982.326C366.572 981.398 367.378 980.935 368.208 980.935C368.696 980.935 369.453 981.154 370.479 981.594C371.553 981.984 372.773 982.521 374.141 983.205C375.508 983.84 376.997 984.523 378.608 985.256C380.22 985.988 381.831 986.696 383.442 987.38C385.054 988.015 386.616 988.552 388.13 988.991C389.692 989.382 391.108 989.577 392.378 989.577C393.208 988.601 393.965 987.307 394.648 985.695C395.332 984.084 395.674 982.326 395.674 980.422C395.674 978.078 395.356 975.905 394.722 973.903C394.087 971.901 393.257 970.046 392.231 968.337C391.206 966.628 390.034 965.041 388.716 963.576C387.446 962.062 386.152 960.646 384.834 959.328C383.662 962.209 382.637 965.065 381.758 967.897C380.879 970.681 379.951 973.854 378.975 977.419Z" fill="white"/>
<path d="M435.151 1002.17C432.222 1002.17 429.561 1001.66 427.168 1000.64C424.775 999.611 422.725 998.098 421.016 996.096C419.355 994.045 418.062 991.53 417.134 988.552C416.255 985.524 415.815 982.033 415.815 978.078C415.815 972.316 416.621 967.189 418.232 962.697C419.844 958.156 422.041 954.274 424.824 951.052C427.607 947.78 430.83 945.192 434.492 943.288C438.154 941.335 442.036 940.065 446.138 939.479V905.568C446.138 904.494 446.04 903.64 445.845 903.005C445.698 902.37 445.527 901.882 445.332 901.54C445.186 901.149 445.015 900.856 444.819 900.661C444.673 900.417 444.6 900.173 444.6 899.929C444.6 899.636 444.746 899.392 445.039 899.196C445.332 899.001 445.723 898.83 446.211 898.684C446.699 898.537 447.212 898.439 447.749 898.391C448.335 898.293 448.896 898.244 449.434 898.244C451.924 898.244 453.877 898.903 455.293 900.222C456.758 901.491 457.49 903.029 457.49 904.836V985.402C457.49 986.232 457.588 987.062 457.783 987.893C457.979 988.674 458.271 989.406 458.662 990.09C459.102 990.725 459.639 991.262 460.273 991.701C460.957 992.092 461.738 992.287 462.617 992.287C464.131 992.287 465.425 991.75 466.499 990.676C467.622 989.602 468.574 988.259 469.355 986.647C470.186 985.036 470.845 983.303 471.333 981.447C471.87 979.543 472.31 977.761 472.651 976.101C472.944 974.538 473.433 973.415 474.116 972.731C474.8 971.999 475.508 971.633 476.24 971.633C476.826 971.633 477.437 971.828 478.071 972.219C478.706 972.561 479.268 973.024 479.756 973.61C480.293 974.196 480.708 974.855 481.001 975.588C481.343 976.32 481.514 977.053 481.514 977.785C481.514 977.883 481.514 978.005 481.514 978.151C481.514 978.298 481.465 978.518 481.367 978.811C480.732 981.301 479.854 983.913 478.73 986.647C477.656 989.382 476.24 991.896 474.482 994.191C472.773 996.486 470.723 998.391 468.33 999.904C465.938 1001.42 463.13 1002.17 459.907 1002.17C457.319 1002.17 455.049 1001.64 453.096 1000.56C451.143 999.489 449.604 998.073 448.481 996.315C446.821 998.024 444.893 999.416 442.695 1000.49C440.547 1001.61 438.032 1002.17 435.151 1002.17ZM437.422 992.287C439.375 992.287 441.06 991.726 442.476 990.603C443.94 989.479 445.161 988.088 446.138 986.428V949.367C443.696 949.807 441.328 950.637 439.033 951.857C436.787 953.029 434.785 954.689 433.027 956.838C431.318 958.986 429.951 961.721 428.926 965.041C427.9 968.312 427.388 972.292 427.388 976.979C427.388 979.714 427.656 982.058 428.193 984.011C428.779 985.915 429.512 987.478 430.391 988.698C431.318 989.919 432.393 990.822 433.613 991.408C434.834 991.994 436.104 992.287 437.422 992.287Z" fill="white"/>
<path d="M507.808 954.348C507.808 957.131 507.319 959.987 506.343 962.917C505.415 965.847 503.999 968.63 502.095 971.267C500.239 973.854 497.92 976.198 495.137 978.298C492.402 980.349 489.229 981.911 485.615 982.985C486.104 984.255 486.738 985.476 487.52 986.647C488.35 987.771 489.326 988.747 490.449 989.577C491.572 990.407 492.866 991.066 494.331 991.555C495.845 992.043 497.578 992.287 499.531 992.287C502.461 992.287 504.976 991.75 507.075 990.676C509.175 989.553 510.933 988.088 512.349 986.281C513.813 984.475 514.985 982.448 515.864 980.202C516.743 977.956 517.402 975.686 517.842 973.391C518.184 971.73 518.867 970.632 519.893 970.095C520.967 969.509 522.041 969.362 523.115 969.655C524.238 969.948 525.19 970.583 525.972 971.56C526.802 972.487 527.144 973.61 526.997 974.929C526.802 976.442 526.46 978.176 525.972 980.129C525.532 982.082 524.849 984.06 523.921 986.062C522.993 988.063 521.797 990.041 520.332 991.994C518.916 993.898 517.158 995.607 515.059 997.121C512.959 998.635 510.493 999.855 507.661 1000.78C504.829 1001.71 501.582 1002.17 497.92 1002.17C494.502 1002.17 491.182 1001.49 487.959 1000.12C484.785 998.806 481.953 996.901 479.463 994.411C477.021 991.872 475.044 988.771 473.53 985.109C472.065 981.398 471.333 977.199 471.333 972.512C471.333 967.775 471.992 963.381 473.311 959.328C474.629 955.227 476.362 951.687 478.511 948.708C480.659 945.729 483.101 943.41 485.835 941.75C488.569 940.041 491.377 939.187 494.258 939.187C496.357 939.187 498.237 939.553 499.897 940.285C501.606 941.018 503.047 942.067 504.219 943.435C505.391 944.753 506.27 946.34 506.855 948.195C507.49 950.051 507.808 952.102 507.808 954.348ZM483.638 972.072C483.638 972.512 483.662 972.951 483.711 973.391C483.76 973.83 483.784 974.294 483.784 974.782C485.64 973.903 487.324 972.78 488.838 971.413C490.352 970.046 491.646 968.483 492.72 966.726C493.794 964.968 494.624 963.063 495.21 961.013C495.796 958.913 496.089 956.74 496.089 954.494C496.089 952.834 495.796 951.54 495.21 950.612C494.673 949.685 493.916 949.221 492.939 949.221C491.719 949.221 490.62 949.636 489.644 950.466C488.716 951.296 487.886 952.395 487.153 953.762C486.47 955.08 485.884 956.594 485.396 958.303C484.956 959.963 484.59 961.647 484.297 963.356C484.004 965.065 483.809 966.701 483.711 968.264C483.613 969.777 483.589 971.047 483.638 972.072Z" fill="white"/>
<path d="M548.381 927.626C547.119 929.335 546 930.76 545.024 931.899C544.088 932.998 543.254 933.872 542.521 934.523C541.789 935.174 541.138 935.622 540.568 935.866C540.039 936.11 539.592 936.232 539.226 936.232C538.493 936.232 537.801 936.049 537.15 935.683C536.499 935.276 535.93 934.788 535.441 934.218C534.994 933.649 534.628 933.038 534.343 932.387C534.099 931.695 533.977 931.065 533.977 930.495C533.977 930.048 534.119 929.763 534.404 929.641C534.689 929.519 535.014 929.396 535.38 929.274C535.747 929.152 536.215 928.827 536.784 928.298C537.354 927.728 538.005 927.036 538.737 926.223C539.47 925.409 540.222 924.514 540.996 923.537C541.809 922.52 542.603 921.503 543.376 920.485C545.207 918.085 547.16 915.419 549.235 912.49C549.683 911.879 550.232 911.391 550.883 911.025C551.534 910.659 552.246 910.476 553.02 910.476C553.63 910.476 554.22 910.618 554.79 910.903C555.4 911.147 555.929 911.513 556.376 912.001C556.865 912.449 557.231 912.978 557.475 913.588C557.76 914.158 557.902 914.748 557.902 915.358V997.39C557.902 998.448 557.536 999.18 556.804 999.587C556.112 1000.03 555.298 1000.26 554.362 1000.26C553.63 1000.26 552.897 1000.16 552.165 999.953C551.473 999.75 550.843 999.465 550.273 999.099C549.703 998.773 549.235 998.407 548.869 998C548.544 997.552 548.381 997.084 548.381 996.596V927.626Z" fill="white"/>
<path d="M589.091 992.385C590.434 992.385 591.716 991.998 592.937 991.225C594.157 990.411 595.256 989.089 596.232 987.258C597.209 985.427 598.063 983.026 598.796 980.056C599.528 977.085 600.078 973.403 600.444 969.008C599.345 970.31 598.247 971.348 597.148 972.121C596.049 972.854 594.991 973.444 593.974 973.891C592.998 974.298 592.041 974.562 591.105 974.685C590.21 974.807 589.376 974.868 588.603 974.868C585.266 974.868 582.398 974.013 579.997 972.304C577.637 970.595 575.684 968.337 574.138 965.529C572.632 962.722 571.513 959.528 570.781 955.947C570.089 952.366 569.743 948.684 569.743 944.899C569.743 939.447 570.15 934.829 570.964 931.044C571.778 927.22 572.815 924.025 574.077 921.462C575.379 918.898 576.803 916.884 578.349 915.419C579.895 913.955 581.381 912.856 582.805 912.124C584.27 911.391 585.592 910.944 586.772 910.781C587.952 910.577 588.806 910.476 589.335 910.476C591.94 910.476 594.239 910.964 596.232 911.94C598.226 912.876 599.956 914.158 601.42 915.786C602.926 917.413 604.187 919.305 605.205 921.462C606.263 923.578 607.137 925.836 607.829 928.237C608.562 930.638 609.111 933.099 609.477 935.622C609.884 938.104 610.189 940.505 610.393 942.824C610.596 945.144 610.718 947.3 610.759 949.294C610.799 951.288 610.82 952.976 610.82 954.36C610.82 956.313 610.779 958.836 610.698 961.928C610.657 964.98 610.433 968.256 610.026 971.755C609.619 975.254 608.968 978.774 608.073 982.314C607.219 985.813 605.978 988.987 604.35 991.835C602.763 994.684 600.729 997.003 598.247 998.793C595.764 1000.58 592.713 1001.48 589.091 1001.48C586.772 1001.48 584.615 1000.97 582.622 999.953C580.628 998.977 578.898 997.756 577.434 996.291C575.969 994.826 574.809 993.28 573.955 991.652C573.141 990.025 572.734 988.56 572.734 987.258C572.734 986.77 572.958 986.281 573.405 985.793C573.894 985.305 574.484 984.877 575.175 984.511C575.867 984.104 576.62 983.799 577.434 983.596C578.247 983.352 579 983.229 579.692 983.229C580.262 983.229 580.729 983.311 581.096 983.474C581.503 983.596 581.706 983.86 581.706 984.267C581.706 985.244 581.889 986.22 582.255 987.197C582.622 988.173 583.13 989.048 583.781 989.821C584.432 990.594 585.205 991.225 586.101 991.713C587.036 992.161 588.033 992.385 589.091 992.385ZM589.335 965.896C592.184 965.896 594.666 964.532 596.782 961.806C598.898 959.08 600.301 954.93 600.993 949.355C600.79 943.496 600.301 938.653 599.528 934.829C598.796 931.004 597.88 927.972 596.782 925.734C595.724 923.456 594.544 921.869 593.242 920.974C591.94 920.078 590.638 919.631 589.335 919.631C588.278 919.631 587.138 920.038 585.917 920.852C584.737 921.625 583.639 922.988 582.622 924.941C581.645 926.853 580.831 929.437 580.18 932.692C579.529 935.907 579.204 939.976 579.204 944.899C579.204 947.666 579.407 950.332 579.814 952.895C580.221 955.418 580.831 957.656 581.645 959.609C582.5 961.521 583.557 963.047 584.819 964.187C586.121 965.326 587.626 965.896 589.335 965.896Z" fill="white"/>
<path d="M636.516 997.39C636.516 998.448 636.149 999.18 635.417 999.587C634.685 1000.03 633.85 1000.26 632.915 1000.26C632.182 1000.26 631.429 1000.16 630.656 999.953C629.924 999.79 629.252 999.444 628.642 998.916C628.032 998.427 627.523 997.756 627.116 996.901C626.709 996.006 626.506 994.867 626.506 993.483C626.506 986.403 627.014 979.425 628.032 972.548C629.09 965.631 630.412 959.039 631.999 952.773C633.627 946.507 635.417 940.708 637.37 935.378C639.364 930.048 641.297 925.429 643.168 921.523C641.215 921.604 639.262 921.706 637.309 921.828C635.356 921.91 633.464 921.991 631.633 922.072C629.802 922.154 628.052 922.235 626.384 922.316C624.756 922.357 623.271 922.377 621.928 922.377C620.87 922.377 620.016 922.215 619.365 921.889C618.754 921.523 618.286 921.075 617.961 920.546C617.676 920.017 617.493 919.427 617.412 918.776C617.33 918.085 617.29 917.413 617.29 916.762C617.29 915.582 617.473 914.524 617.839 913.588C618.205 912.612 618.734 912.124 619.426 912.124C619.629 912.124 619.772 912.144 619.853 912.185C619.975 912.225 620.158 912.286 620.402 912.368C621.786 912.449 623.719 912.53 626.201 912.612C628.683 912.693 632.08 912.734 636.394 912.734C640.625 912.734 643.942 912.571 646.342 912.246C648.743 911.92 650.472 911.757 651.53 911.757C652.303 911.757 652.995 912.042 653.605 912.612C654.216 913.141 654.521 913.975 654.521 915.114C654.521 915.684 654.419 916.315 654.216 917.006C654.012 917.657 653.748 918.369 653.422 919.143C652.08 922.357 650.716 925.592 649.333 928.847C647.99 932.102 646.688 935.541 645.427 939.162C644.165 942.743 642.985 946.547 641.887 950.576C640.829 954.604 639.893 958.978 639.079 963.698C638.306 968.418 637.675 973.566 637.187 979.14C636.739 984.674 636.516 990.757 636.516 997.39Z" fill="white"/>
<path d="M680.827 919.631C679.444 919.631 678.142 920.038 676.921 920.852C675.7 921.665 674.581 922.988 673.564 924.819C672.587 926.65 671.733 929.051 671 932.021C670.268 934.991 669.719 938.653 669.353 943.007C670.492 941.746 671.611 940.729 672.709 939.956C673.808 939.182 674.846 938.592 675.822 938.186C676.84 937.738 677.796 937.453 678.691 937.331C679.627 937.209 680.502 937.148 681.315 937.148C684.652 937.148 687.521 938.002 689.921 939.711C692.322 941.42 694.275 943.679 695.781 946.486C697.327 949.253 698.446 952.447 699.138 956.069C699.87 959.65 700.236 963.332 700.236 967.116C700.236 972.569 699.829 977.207 699.016 981.032C698.202 984.816 697.144 987.99 695.842 990.554C694.58 993.076 693.177 995.07 691.63 996.535C690.084 998 688.579 999.099 687.114 999.831C685.649 1000.56 684.326 1001.01 683.146 1001.17C681.966 1001.38 681.112 1001.48 680.583 1001.48C677.124 1001.48 674.195 1000.64 671.794 998.977C669.393 997.349 667.399 995.233 665.812 992.629C664.226 989.984 662.964 987.034 662.028 983.779C661.133 980.483 660.462 977.207 660.014 973.952C659.607 970.697 659.343 967.625 659.221 964.736C659.139 961.847 659.099 959.466 659.099 957.595C659.099 956.13 659.099 954.34 659.099 952.224C659.139 950.108 659.241 947.809 659.404 945.327C659.607 942.845 659.892 940.261 660.258 937.575C660.625 934.89 661.133 932.265 661.784 929.702C662.476 927.097 663.351 924.636 664.409 922.316C665.467 919.997 666.748 917.963 668.254 916.213C669.8 914.463 671.59 913.08 673.625 912.062C675.7 911.005 678.101 910.476 680.827 910.476C683.146 910.476 685.303 910.984 687.297 912.001C689.291 913.019 691.02 914.26 692.485 915.725C693.95 917.189 695.089 918.756 695.903 920.424C696.757 922.052 697.185 923.496 697.185 924.758C697.185 925.246 696.94 925.734 696.452 926.223C696.005 926.711 695.435 927.138 694.743 927.504C694.051 927.871 693.299 928.176 692.485 928.42C691.671 928.623 690.918 928.725 690.227 928.725C689.657 928.725 689.169 928.664 688.762 928.542C688.396 928.379 688.212 928.115 688.212 927.749C688.212 926.731 688.029 925.755 687.663 924.819C687.297 923.842 686.788 922.967 686.137 922.194C685.486 921.421 684.693 920.811 683.757 920.363C682.862 919.875 681.885 919.631 680.827 919.631ZM680.583 946.12C677.653 946.12 675.151 947.483 673.076 950.209C671.041 952.895 669.678 957.066 668.986 962.722C669.149 968.581 669.597 973.423 670.329 977.248C671.062 981.032 671.957 984.064 673.015 986.342C674.113 988.58 675.314 990.147 676.616 991.042C677.958 991.937 679.281 992.385 680.583 992.385C681.641 992.385 682.76 991.998 683.94 991.225C685.161 990.411 686.259 989.048 687.236 987.136C688.253 985.183 689.087 982.599 689.738 979.384C690.389 976.129 690.715 972.04 690.715 967.116C690.715 964.349 690.511 961.704 690.104 959.182C689.698 956.618 689.067 954.38 688.212 952.468C687.399 950.515 686.341 948.968 685.039 947.829C683.777 946.69 682.292 946.12 680.583 946.12Z" fill="white"/>
</svg>
