<svg width="928" height="840" viewBox="0 0 928 840" fill="none" xmlns="http://www.w3.org/2000/svg">
<path d="M379.389 0L514.059 442.8L660.611 0H790L585.355 546H436.161L250 0H379.389Z" fill="#03439B"/>
<path d="M325.389 0L460.059 442.8L606.611 0H736L531.355 546H382.161L196 0H325.389Z" fill="#3DBCFF"/>
<path d="M221.168 606.724L148.707 840H75.7334L0.196289 606.724H75.7334L112.477 733.872C114.983 741.392 117.205 748.797 119.142 756.089L162.208 606.724H221.168Z" fill="#3DBCFF"/>
<path d="M418.385 784.287V840H242.872V606.724H418.385V660.557H313.111V694.395H398.219V746.177H313.111V784.287H418.385Z" fill="#3DBCFF"/>
<path d="M610.475 782.749V840H446.925V606.724H518.531V782.749H610.475Z" fill="#3DBCFF"/>
<path d="M707.203 606.724V840H635.597V606.724H707.203Z" fill="#3DBCFF"/>
<path d="M927.662 784.971V840H733.521V795.396L836.915 660.728H741.383V606.724H924.415V652.012L824.098 784.971H927.662Z" fill="#3DBCFF"/>
</svg>
