<svg width="934" height="1039" viewBox="0 0 934 1039" fill="none" xmlns="http://www.w3.org/2000/svg">
<path d="M382.192 0L516.862 442.8L663.415 0H792.804L588.158 546H438.965L252.804 0H382.192Z" fill="#03439B"/>
<path d="M328.192 0L462.862 442.8L609.415 0H738.804L534.158 546H384.965L198.804 0H328.192Z" fill="#3DBCFF"/>
<path d="M223.972 606.724L151.511 840H78.5371L3 606.724H78.5371L115.28 733.872C117.787 741.392 120.008 748.797 121.945 756.089L165.012 606.724H223.972Z" fill="#3DBCFF"/>
<path d="M421.188 784.287V840H245.676V606.724H421.188V660.557H315.915V694.395H401.022V746.177H315.915V784.287H421.188Z" fill="#3DBCFF"/>
<path d="M613.278 782.749V840H449.729V606.724H521.335V782.749H613.278Z" fill="#3DBCFF"/>
<path d="M710.007 606.724V840H638.4V606.724H710.007Z" fill="#3DBCFF"/>
<path d="M930.466 784.971V840H736.325V795.396L839.719 660.728H744.187V606.724H927.219V652.012L826.901 784.971H930.466Z" fill="#3DBCFF"/>
<path d="M910.233 886H462.049V962.5H879.998C894.819 945.87 929.085 909.948 933.353 899.304C937.622 888.661 919.718 886 910.233 886Z" fill="#03439B"/>
<path d="M23.2687 886H462.049V962.5H52.869C38.359 945.87 4.81205 909.948 0.633175 899.304C-3.5457 888.661 13.9823 886 23.2687 886Z" fill="#03439B"/>
<path d="M23.2686 1039H462.049V962.5H52.869C38.3591 979.13 4.81203 1015.05 0.633156 1025.7C-3.54572 1036.34 13.9823 1039 23.2686 1039Z" fill="#03439B"/>
<path d="M910.233 1039H462.049V962.5H879.998C894.819 979.13 929.085 1015.05 933.353 1025.7C937.622 1036.34 919.718 1039 910.233 1039Z" fill="#03439B"/>
<rect x="54" y="930" width="825" height="53" fill="#03439B"/>
<path d="M273.525 989.916C273.525 994.066 274.16 997.216 275.43 999.364C276.748 1001.46 278.921 1002.51 281.948 1002.51C283.853 1002.51 285.781 1001.9 287.734 1000.68C289.688 999.462 291.592 997.729 293.447 995.482C295.303 993.188 297.012 990.453 298.574 987.279C300.186 984.057 301.602 980.492 302.822 976.586C304.043 972.631 304.995 968.358 305.679 963.769C306.362 959.179 306.704 954.394 306.704 949.413C306.704 944.384 306.143 939.623 305.02 935.131C303.945 930.639 302.236 926.732 299.893 923.412C297.598 920.043 294.644 917.382 291.03 915.429C287.466 913.476 283.193 912.499 278.213 912.499C274.062 912.499 270.4 912.963 267.227 913.891C264.053 914.818 261.294 916.112 258.95 917.772C256.655 919.384 254.702 921.288 253.091 923.485C251.528 925.683 250.259 928.051 249.282 930.59C248.354 933.08 247.695 935.692 247.305 938.427C246.914 941.112 246.719 943.773 246.719 946.41C246.719 950.023 247.085 953.246 247.817 956.078C248.599 958.91 249.453 961.327 250.381 963.329C251.357 965.282 252.261 966.796 253.091 967.87C253.97 968.944 254.482 969.555 254.629 969.701C255.459 969.457 256.045 969.555 256.387 969.994C256.729 970.434 256.899 971.02 256.899 971.752C256.899 972.729 256.68 973.754 256.24 974.828C255.85 975.854 255.312 976.806 254.629 977.685C253.945 978.515 253.164 979.223 252.285 979.809C251.455 980.346 250.601 980.614 249.722 980.614C249.331 980.614 248.94 980.565 248.55 980.468C248.208 980.37 247.842 980.175 247.451 979.882C247.354 979.833 246.987 979.491 246.353 978.856C245.718 978.173 244.937 977.221 244.009 976C243.081 974.779 242.08 973.266 241.006 971.459C239.98 969.604 239.004 967.479 238.076 965.087C237.197 962.694 236.465 960.009 235.879 957.03C235.293 954.052 235 950.805 235 947.289C235 940.502 236.025 934.276 238.076 928.612C240.176 922.899 243.13 918.017 246.938 913.964C250.747 909.862 255.337 906.688 260.708 904.442C266.079 902.147 272.061 901 278.652 901C285.635 901 291.641 902.343 296.67 905.028C301.748 907.665 305.898 911.181 309.121 915.575C312.393 919.97 314.81 924.999 316.372 930.663C317.935 936.327 318.716 942.187 318.716 948.241C318.716 955.321 318.154 961.864 317.031 967.87C315.957 973.876 314.468 979.32 312.563 984.203C310.708 989.086 308.535 993.407 306.045 997.167C303.555 1000.88 300.918 1004 298.135 1006.54C295.352 1009.03 292.495 1010.91 289.565 1012.18C286.636 1013.45 283.804 1014.09 281.069 1014.09C277.554 1014.09 274.551 1013.52 272.061 1012.4C269.619 1011.33 267.642 1009.74 266.128 1007.64C264.614 1005.49 263.516 1002.88 262.832 999.804C262.148 996.679 261.807 993.139 261.807 989.184V931.688C261.807 930.272 261.709 929.271 261.514 928.686C261.318 928.051 261.221 927.465 261.221 926.928C261.221 926.146 261.611 925.536 262.393 925.097C263.174 924.608 264.102 924.364 265.176 924.364C267.666 924.364 269.668 925.023 271.182 926.342C272.744 927.611 273.525 929.149 273.525 930.956V989.916Z" fill="white"/>
<path d="M362.734 964.721C362.734 967.504 362.246 970.36 361.27 973.29C360.342 976.22 358.926 979.003 357.021 981.64C355.166 984.228 352.847 986.571 350.063 988.671C347.329 990.722 344.155 992.284 340.542 993.358C341.03 994.628 341.665 995.849 342.446 997.021C343.276 998.144 344.253 999.12 345.376 999.95C346.499 1000.78 347.793 1001.44 349.258 1001.93C350.771 1002.42 352.505 1002.66 354.458 1002.66C357.388 1002.66 359.902 1002.12 362.002 1001.05C364.102 999.926 365.859 998.461 367.275 996.654C368.74 994.848 369.912 992.821 370.791 990.575C371.67 988.329 372.329 986.059 372.769 983.764C373.11 982.104 373.794 981.005 374.819 980.468C375.894 979.882 376.968 979.735 378.042 980.028C379.165 980.321 380.117 980.956 380.898 981.933C381.729 982.86 382.07 983.983 381.924 985.302C381.729 986.815 381.387 988.549 380.898 990.502C380.459 992.455 379.775 994.433 378.848 996.435C377.92 998.437 376.724 1000.41 375.259 1002.37C373.843 1004.27 372.085 1005.98 369.985 1007.49C367.886 1009.01 365.42 1010.23 362.588 1011.16C359.756 1012.08 356.509 1012.55 352.847 1012.55C349.429 1012.55 346.108 1011.86 342.886 1010.5C339.712 1009.18 336.88 1007.27 334.39 1004.78C331.948 1002.25 329.971 999.145 328.457 995.482C326.992 991.771 326.26 987.572 326.26 982.885C326.26 978.148 326.919 973.754 328.237 969.701C329.556 965.6 331.289 962.06 333.438 959.081C335.586 956.103 338.027 953.783 340.762 952.123C343.496 950.414 346.304 949.56 349.185 949.56C351.284 949.56 353.164 949.926 354.824 950.658C356.533 951.391 357.974 952.44 359.146 953.808C360.317 955.126 361.196 956.713 361.782 958.568C362.417 960.424 362.734 962.475 362.734 964.721ZM338.564 982.445C338.564 982.885 338.589 983.324 338.638 983.764C338.687 984.203 338.711 984.667 338.711 985.155C340.566 984.276 342.251 983.153 343.765 981.786C345.278 980.419 346.572 978.856 347.646 977.099C348.721 975.341 349.551 973.437 350.137 971.386C350.723 969.286 351.016 967.113 351.016 964.867C351.016 963.207 350.723 961.913 350.137 960.985C349.6 960.058 348.843 959.594 347.866 959.594C346.646 959.594 345.547 960.009 344.57 960.839C343.643 961.669 342.812 962.768 342.08 964.135C341.396 965.453 340.811 966.967 340.322 968.676C339.883 970.336 339.517 972.021 339.224 973.729C338.931 975.438 338.735 977.074 338.638 978.637C338.54 980.15 338.516 981.42 338.564 982.445Z" fill="white"/>
<path d="M381.265 987.792C380.874 989.354 380.142 990.331 379.067 990.722C377.993 991.063 376.919 991.015 375.845 990.575C374.819 990.136 373.94 989.379 373.208 988.305C372.524 987.23 372.329 986.059 372.622 984.789C373.354 981.469 374.404 977.807 375.771 973.803C377.188 969.75 378.579 965.722 379.946 961.718C379.214 960.595 378.628 959.472 378.188 958.349C377.749 957.177 377.529 955.956 377.529 954.687C377.529 953.417 377.993 952.099 378.921 950.731C379.897 949.315 381.045 948.021 382.363 946.85C383.73 945.678 385.122 944.726 386.538 943.993C388.003 943.212 389.248 942.821 390.273 942.821C392.08 942.821 393.423 943.432 394.302 944.652C395.229 945.873 395.693 947.509 395.693 949.56C395.693 950.683 395.498 951.806 395.107 952.929C394.766 954.003 394.375 955.028 393.936 956.005C393.496 956.933 393.081 957.738 392.69 958.422C392.349 959.105 392.153 959.545 392.104 959.74C393.862 962.865 395.693 965.624 397.598 968.017C399.502 970.409 401.235 972.777 402.798 975.121C404.409 977.465 405.728 979.955 406.753 982.592C407.778 985.229 408.291 988.329 408.291 991.894C408.291 992.772 408.218 993.676 408.071 994.604C407.974 995.531 407.803 996.41 407.559 997.24C409.316 996.898 410.854 996.361 412.173 995.629C413.54 994.896 414.712 994.066 415.688 993.139C416.714 992.162 417.544 991.112 418.179 989.989C418.862 988.866 419.424 987.694 419.863 986.474C420.4 985.058 420.938 984.032 421.475 983.397C422.012 982.763 422.622 982.445 423.306 982.445C423.94 982.445 424.575 982.665 425.21 983.104C425.894 983.495 426.479 984.008 426.968 984.643C427.505 985.277 427.92 985.937 428.213 986.62C428.555 987.304 428.726 987.914 428.726 988.451C428.726 989.184 428.53 990.062 428.14 991.088C427.749 992.113 427.212 993.163 426.528 994.237C425.894 995.312 425.161 996.361 424.331 997.387C423.501 998.363 422.646 999.218 421.768 999.95C419.424 1001.85 416.665 1003.47 413.491 1004.78C410.317 1006.05 406.387 1006.86 401.699 1007.2C399.893 1008.76 397.744 1010.03 395.254 1011.01C392.812 1012.04 390.054 1012.55 386.978 1012.55C385.415 1012.55 383.804 1012.35 382.144 1011.96C380.532 1011.57 378.97 1011.06 377.456 1010.42C375.991 1009.84 374.648 1009.18 373.428 1008.45C372.207 1007.71 371.23 1006.98 370.498 1006.25C368.643 1004.49 367.446 1002.73 366.909 1000.98C366.372 999.169 366.25 997.558 366.543 996.142C366.787 994.726 367.3 993.578 368.081 992.699C368.862 991.771 369.668 991.308 370.498 991.308C370.986 991.308 371.743 991.527 372.769 991.967C373.843 992.357 375.063 992.895 376.431 993.578C377.798 994.213 379.287 994.896 380.898 995.629C382.51 996.361 384.121 997.069 385.732 997.753C387.344 998.388 388.906 998.925 390.42 999.364C391.982 999.755 393.398 999.95 394.668 999.95C395.498 998.974 396.255 997.68 396.938 996.068C397.622 994.457 397.964 992.699 397.964 990.795C397.964 988.451 397.646 986.278 397.012 984.276C396.377 982.274 395.547 980.419 394.521 978.71C393.496 977.001 392.324 975.414 391.006 973.949C389.736 972.436 388.442 971.02 387.124 969.701C385.952 972.582 384.927 975.438 384.048 978.271C383.169 981.054 382.241 984.228 381.265 987.792Z" fill="white"/>
<path d="M437.441 1012.55C434.512 1012.55 431.851 1012.04 429.458 1011.01C427.065 1009.98 425.015 1008.47 423.306 1006.47C421.646 1004.42 420.352 1001.9 419.424 998.925C418.545 995.897 418.105 992.406 418.105 988.451C418.105 982.689 418.911 977.562 420.522 973.07C422.134 968.529 424.331 964.647 427.114 961.425C429.897 958.153 433.12 955.565 436.782 953.661C440.444 951.708 444.326 950.438 448.428 949.853V915.941C448.428 914.867 448.33 914.013 448.135 913.378C447.988 912.743 447.817 912.255 447.622 911.913C447.476 911.522 447.305 911.229 447.109 911.034C446.963 910.79 446.89 910.546 446.89 910.302C446.89 910.009 447.036 909.765 447.329 909.569C447.622 909.374 448.013 909.203 448.501 909.057C448.989 908.91 449.502 908.812 450.039 908.764C450.625 908.666 451.187 908.617 451.724 908.617C454.214 908.617 456.167 909.276 457.583 910.595C459.048 911.864 459.78 913.402 459.78 915.209V995.775C459.78 996.605 459.878 997.436 460.073 998.266C460.269 999.047 460.562 999.779 460.952 1000.46C461.392 1001.1 461.929 1001.63 462.563 1002.07C463.247 1002.46 464.028 1002.66 464.907 1002.66C466.421 1002.66 467.715 1002.12 468.789 1001.05C469.912 999.975 470.864 998.632 471.646 997.021C472.476 995.409 473.135 993.676 473.623 991.82C474.16 989.916 474.6 988.134 474.941 986.474C475.234 984.911 475.723 983.788 476.406 983.104C477.09 982.372 477.798 982.006 478.53 982.006C479.116 982.006 479.727 982.201 480.361 982.592C480.996 982.934 481.558 983.397 482.046 983.983C482.583 984.569 482.998 985.229 483.291 985.961C483.633 986.693 483.804 987.426 483.804 988.158C483.804 988.256 483.804 988.378 483.804 988.524C483.804 988.671 483.755 988.891 483.657 989.184C483.022 991.674 482.144 994.286 481.021 997.021C479.946 999.755 478.53 1002.27 476.772 1004.56C475.063 1006.86 473.013 1008.76 470.62 1010.28C468.228 1011.79 465.42 1012.55 462.197 1012.55C459.609 1012.55 457.339 1012.01 455.386 1010.94C453.433 1009.86 451.895 1008.45 450.771 1006.69C449.111 1008.4 447.183 1009.79 444.985 1010.86C442.837 1011.99 440.322 1012.55 437.441 1012.55ZM439.712 1002.66C441.665 1002.66 443.35 1002.1 444.766 1000.98C446.23 999.853 447.451 998.461 448.428 996.801V959.74C445.986 960.18 443.618 961.01 441.323 962.23C439.077 963.402 437.075 965.062 435.317 967.211C433.608 969.359 432.241 972.094 431.216 975.414C430.19 978.686 429.678 982.665 429.678 987.353C429.678 990.087 429.946 992.431 430.483 994.384C431.069 996.288 431.802 997.851 432.681 999.071C433.608 1000.29 434.683 1001.2 435.903 1001.78C437.124 1002.37 438.394 1002.66 439.712 1002.66Z" fill="white"/>
<path d="M510.098 964.721C510.098 967.504 509.609 970.36 508.633 973.29C507.705 976.22 506.289 979.003 504.385 981.64C502.529 984.228 500.21 986.571 497.427 988.671C494.692 990.722 491.519 992.284 487.905 993.358C488.394 994.628 489.028 995.849 489.81 997.021C490.64 998.144 491.616 999.12 492.739 999.95C493.862 1000.78 495.156 1001.44 496.621 1001.93C498.135 1002.42 499.868 1002.66 501.821 1002.66C504.751 1002.66 507.266 1002.12 509.365 1001.05C511.465 999.926 513.223 998.461 514.639 996.654C516.104 994.848 517.275 992.821 518.154 990.575C519.033 988.329 519.692 986.059 520.132 983.764C520.474 982.104 521.157 981.005 522.183 980.468C523.257 979.882 524.331 979.735 525.405 980.028C526.528 980.321 527.48 980.956 528.262 981.933C529.092 982.86 529.434 983.983 529.287 985.302C529.092 986.815 528.75 988.549 528.262 990.502C527.822 992.455 527.139 994.433 526.211 996.435C525.283 998.437 524.087 1000.41 522.622 1002.37C521.206 1004.27 519.448 1005.98 517.349 1007.49C515.249 1009.01 512.783 1010.23 509.951 1011.16C507.119 1012.08 503.872 1012.55 500.21 1012.55C496.792 1012.55 493.472 1011.86 490.249 1010.5C487.075 1009.18 484.243 1007.27 481.753 1004.78C479.312 1002.25 477.334 999.145 475.82 995.482C474.355 991.771 473.623 987.572 473.623 982.885C473.623 978.148 474.282 973.754 475.601 969.701C476.919 965.6 478.652 962.06 480.801 959.081C482.949 956.103 485.391 953.783 488.125 952.123C490.859 950.414 493.667 949.56 496.548 949.56C498.647 949.56 500.527 949.926 502.188 950.658C503.896 951.391 505.337 952.44 506.509 953.808C507.681 955.126 508.56 956.713 509.146 958.568C509.78 960.424 510.098 962.475 510.098 964.721ZM485.928 982.445C485.928 982.885 485.952 983.324 486.001 983.764C486.05 984.203 486.074 984.667 486.074 985.155C487.93 984.276 489.614 983.153 491.128 981.786C492.642 980.419 493.936 978.856 495.01 977.099C496.084 975.341 496.914 973.437 497.5 971.386C498.086 969.286 498.379 967.113 498.379 964.867C498.379 963.207 498.086 961.913 497.5 960.985C496.963 960.058 496.206 959.594 495.229 959.594C494.009 959.594 492.91 960.009 491.934 960.839C491.006 961.669 490.176 962.768 489.443 964.135C488.76 965.453 488.174 966.967 487.686 968.676C487.246 970.336 486.88 972.021 486.587 973.729C486.294 975.438 486.099 977.074 486.001 978.637C485.903 980.15 485.879 981.42 485.928 982.445Z" fill="white"/>
<path d="M550.671 938C549.41 939.708 548.291 941.133 547.314 942.272C546.378 943.371 545.544 944.245 544.812 944.896C544.079 945.548 543.428 945.995 542.858 946.239C542.329 946.483 541.882 946.605 541.516 946.605C540.783 946.605 540.091 946.422 539.44 946.056C538.789 945.649 538.22 945.161 537.731 944.591C537.284 944.022 536.918 943.411 536.633 942.76C536.389 942.069 536.267 941.438 536.267 940.868C536.267 940.421 536.409 940.136 536.694 940.014C536.979 939.892 537.304 939.77 537.67 939.647C538.037 939.525 538.505 939.2 539.074 938.671C539.644 938.101 540.295 937.41 541.027 936.596C541.76 935.782 542.513 934.887 543.286 933.91C544.099 932.893 544.893 931.876 545.666 930.858C547.497 928.458 549.45 925.792 551.525 922.863C551.973 922.252 552.522 921.764 553.173 921.398C553.824 921.032 554.536 920.849 555.31 920.849C555.92 920.849 556.51 920.991 557.08 921.276C557.69 921.52 558.219 921.886 558.667 922.375C559.155 922.822 559.521 923.351 559.765 923.961C560.05 924.531 560.192 925.121 560.192 925.731V1007.76C560.192 1008.82 559.826 1009.55 559.094 1009.96C558.402 1010.41 557.588 1010.63 556.652 1010.63C555.92 1010.63 555.188 1010.53 554.455 1010.33C553.763 1010.12 553.133 1009.84 552.563 1009.47C551.993 1009.15 551.525 1008.78 551.159 1008.37C550.834 1007.93 550.671 1007.46 550.671 1006.97V938Z" fill="white"/>
<path d="M591.381 1002.76C592.724 1002.76 594.006 1002.37 595.227 1001.6C596.447 1000.78 597.546 999.462 598.522 997.631C599.499 995.8 600.354 993.399 601.086 990.429C601.818 987.458 602.368 983.776 602.734 979.381C601.635 980.683 600.537 981.721 599.438 982.494C598.339 983.227 597.281 983.817 596.264 984.264C595.288 984.671 594.331 984.936 593.396 985.058C592.5 985.18 591.666 985.241 590.893 985.241C587.556 985.241 584.688 984.386 582.287 982.677C579.927 980.968 577.974 978.71 576.428 975.902C574.922 973.095 573.803 969.901 573.071 966.32C572.379 962.739 572.033 959.057 572.033 955.272C572.033 949.82 572.44 945.202 573.254 941.417C574.068 937.593 575.105 934.398 576.367 931.835C577.669 929.271 579.093 927.257 580.639 925.792C582.185 924.328 583.671 923.229 585.095 922.497C586.56 921.764 587.882 921.317 589.062 921.154C590.242 920.95 591.097 920.849 591.625 920.849C594.23 920.849 596.529 921.337 598.522 922.313C600.516 923.249 602.246 924.531 603.71 926.159C605.216 927.786 606.477 929.678 607.495 931.835C608.553 933.951 609.427 936.209 610.119 938.61C610.852 941.011 611.401 943.472 611.767 945.995C612.174 948.477 612.479 950.878 612.683 953.197C612.886 955.517 613.008 957.673 613.049 959.667C613.09 961.661 613.11 963.349 613.11 964.733C613.11 966.686 613.069 969.209 612.988 972.301C612.947 975.353 612.723 978.629 612.316 982.128C611.91 985.627 611.258 989.147 610.363 992.687C609.509 996.186 608.268 999.36 606.64 1002.21C605.053 1005.06 603.019 1007.38 600.537 1009.17C598.055 1010.96 595.003 1011.85 591.381 1011.85C589.062 1011.85 586.905 1011.34 584.912 1010.33C582.918 1009.35 581.188 1008.13 579.724 1006.66C578.259 1005.2 577.099 1003.65 576.245 1002.03C575.431 1000.4 575.024 998.933 575.024 997.631C575.024 997.143 575.248 996.654 575.695 996.166C576.184 995.678 576.774 995.25 577.465 994.884C578.157 994.477 578.91 994.172 579.724 993.969C580.537 993.725 581.29 993.603 581.982 993.603C582.552 993.603 583.02 993.684 583.386 993.847C583.793 993.969 583.996 994.233 583.996 994.64C583.996 995.617 584.179 996.593 584.545 997.57C584.912 998.546 585.42 999.421 586.071 1000.19C586.722 1000.97 587.495 1001.6 588.391 1002.09C589.326 1002.53 590.323 1002.76 591.381 1002.76ZM591.625 976.269C594.474 976.269 596.956 974.905 599.072 972.179C601.188 969.453 602.591 965.303 603.283 959.728C603.08 953.869 602.591 949.027 601.818 945.202C601.086 941.377 600.17 938.345 599.072 936.107C598.014 933.829 596.834 932.242 595.532 931.347C594.23 930.451 592.928 930.004 591.625 930.004C590.568 930.004 589.428 930.411 588.208 931.225C587.028 931.998 585.929 933.361 584.912 935.314C583.935 937.226 583.121 939.81 582.47 943.065C581.819 946.28 581.494 950.349 581.494 955.272C581.494 958.039 581.697 960.705 582.104 963.268C582.511 965.791 583.121 968.029 583.935 969.982C584.79 971.894 585.847 973.42 587.109 974.56C588.411 975.699 589.917 976.269 591.625 976.269Z" fill="white"/>
<path d="M638.806 1007.76C638.806 1008.82 638.439 1009.55 637.707 1009.96C636.975 1010.41 636.14 1010.63 635.205 1010.63C634.472 1010.63 633.719 1010.53 632.946 1010.33C632.214 1010.16 631.542 1009.82 630.932 1009.29C630.322 1008.8 629.813 1008.13 629.406 1007.27C628.999 1006.38 628.796 1005.24 628.796 1003.86C628.796 996.776 629.305 989.798 630.322 982.921C631.38 976.004 632.702 969.412 634.289 963.146C635.917 956.88 637.707 951.081 639.66 945.751C641.654 940.421 643.587 935.802 645.458 931.896C643.505 931.977 641.552 932.079 639.599 932.201C637.646 932.283 635.754 932.364 633.923 932.445C632.092 932.527 630.342 932.608 628.674 932.689C627.046 932.73 625.561 932.75 624.218 932.75C623.16 932.75 622.306 932.588 621.655 932.262C621.044 931.896 620.576 931.448 620.251 930.919C619.966 930.39 619.783 929.8 619.702 929.149C619.62 928.458 619.58 927.786 619.58 927.135C619.58 925.955 619.763 924.897 620.129 923.961C620.495 922.985 621.024 922.497 621.716 922.497C621.919 922.497 622.062 922.517 622.143 922.558C622.265 922.598 622.448 922.659 622.692 922.741C624.076 922.822 626.009 922.903 628.491 922.985C630.973 923.066 634.37 923.107 638.684 923.107C642.915 923.107 646.232 922.944 648.632 922.619C651.033 922.293 652.762 922.13 653.82 922.13C654.593 922.13 655.285 922.415 655.896 922.985C656.506 923.514 656.811 924.348 656.811 925.487C656.811 926.057 656.709 926.688 656.506 927.379C656.302 928.03 656.038 928.743 655.712 929.516C654.37 932.73 653.007 935.965 651.623 939.22C650.28 942.475 648.978 945.914 647.717 949.535C646.455 953.116 645.275 956.92 644.177 960.949C643.119 964.977 642.183 969.351 641.369 974.071C640.596 978.791 639.965 983.939 639.477 989.513C639.029 995.047 638.806 1001.13 638.806 1007.76Z" fill="white"/>
<path d="M683.117 930.004C681.734 930.004 680.432 930.411 679.211 931.225C677.99 932.038 676.871 933.361 675.854 935.192C674.877 937.023 674.023 939.424 673.291 942.394C672.558 945.364 672.009 949.027 671.643 953.38C672.782 952.119 673.901 951.102 675 950.329C676.098 949.556 677.136 948.965 678.112 948.559C679.13 948.111 680.086 947.826 680.981 947.704C681.917 947.582 682.792 947.521 683.605 947.521C686.942 947.521 689.811 948.375 692.211 950.084C694.612 951.793 696.565 954.052 698.071 956.859C699.617 959.626 700.736 962.82 701.428 966.442C702.16 970.023 702.526 973.705 702.526 977.489C702.526 982.942 702.119 987.58 701.306 991.405C700.492 995.189 699.434 998.363 698.132 1000.93C696.87 1003.45 695.467 1005.44 693.92 1006.91C692.374 1008.37 690.869 1009.47 689.404 1010.2C687.939 1010.94 686.617 1011.38 685.437 1011.55C684.257 1011.75 683.402 1011.85 682.873 1011.85C679.414 1011.85 676.485 1011.02 674.084 1009.35C671.683 1007.72 669.689 1005.61 668.103 1003C666.516 1000.36 665.254 997.407 664.318 994.152C663.423 990.856 662.752 987.58 662.304 984.325C661.897 981.07 661.633 977.998 661.511 975.109C661.429 972.22 661.389 969.84 661.389 967.968C661.389 966.503 661.389 964.713 661.389 962.597C661.429 960.481 661.531 958.182 661.694 955.7C661.897 953.218 662.182 950.634 662.548 947.948C662.915 945.263 663.423 942.638 664.074 940.075C664.766 937.471 665.641 935.009 666.699 932.689C667.757 930.37 669.038 928.336 670.544 926.586C672.09 924.836 673.881 923.453 675.915 922.436C677.99 921.378 680.391 920.849 683.117 920.849C685.437 920.849 687.593 921.357 689.587 922.375C691.581 923.392 693.31 924.633 694.775 926.098C696.24 927.562 697.379 929.129 698.193 930.797C699.047 932.425 699.475 933.869 699.475 935.131C699.475 935.619 699.23 936.107 698.742 936.596C698.295 937.084 697.725 937.511 697.033 937.877C696.341 938.244 695.589 938.549 694.775 938.793C693.961 938.996 693.208 939.098 692.517 939.098C691.947 939.098 691.459 939.037 691.052 938.915C690.686 938.752 690.502 938.488 690.502 938.122C690.502 937.104 690.319 936.128 689.953 935.192C689.587 934.215 689.078 933.34 688.427 932.567C687.776 931.794 686.983 931.184 686.047 930.736C685.152 930.248 684.175 930.004 683.117 930.004ZM682.873 956.493C679.943 956.493 677.441 957.856 675.366 960.583C673.331 963.268 671.968 967.439 671.276 973.095C671.439 978.954 671.887 983.796 672.619 987.621C673.352 991.405 674.247 994.437 675.305 996.715C676.403 998.953 677.604 1000.52 678.906 1001.42C680.249 1002.31 681.571 1002.76 682.873 1002.76C683.931 1002.76 685.05 1002.37 686.23 1001.6C687.451 1000.78 688.549 999.421 689.526 997.509C690.543 995.556 691.377 992.972 692.028 989.757C692.679 986.502 693.005 982.413 693.005 977.489C693.005 974.722 692.801 972.077 692.395 969.555C691.988 966.991 691.357 964.753 690.502 962.841C689.689 960.888 688.631 959.341 687.329 958.202C686.067 957.063 684.582 956.493 682.873 956.493Z" fill="white"/>
</svg>
